<svg xmlns="http://www.w3.org/2000/svg" viewBox="0 0 895.94 956"><defs><style>.cls-1{fill:#89bac5;}.cls-2{fill:#68bad7;}.cls-3{fill:#13ceef;}</style></defs><title>Layer 1</title><g id="Layer_2" data-name="Layer 2"><g id="Layer_1-2" data-name="Layer 1"><path class="cls-1" d="M527.43,54.23,847,337.53c24.5,21.73,10,65.1-24.1,72L127.75,549.86c-37.65,7.6-59.53-35.9-33.08-65.73L470.25,60.47C485.86,42.86,511.46,40.07,527.43,54.23Z"/><path class="cls-2" d="M475.69,20.39,872.49,178.3c30.42,12.11,31.5,57.84,1.78,75.89L268.12,622.32c-32.82,19.93-68.18-13.55-53.44-50.59L424,45.69C432.73,23.82,455.86,12.5,475.69,20.39Z"/><path class="cls-3" d="M63.87,0l691,1c53,.08,81.86,61.89,47.92,102.58L110.54,933.4C73.06,978.33-.09,951.77,0,893.25L1.25,62.43A62.53,62.53,0,0,1,63.87,0Z"/></g></g></svg>